<?xml version="1.0" encoding="UTF-8" standalone="no"?>
<!DOCTYPE svg PUBLIC "-//W3C//DTD SVG 1.1//EN" "http://www.w3.org/Graphics/SVG/1.1/DTD/svg11.dtd">
<svg width="610" height="610" viewBox="0 0 610 610" version="1.1" xmlns="http://www.w3.org/2000/svg" xmlns:xlink="http://www.w3.org/1999/xlink" xml:space="preserve" xmlns:serif="http://www.serif.com/" style="fill-rule:evenodd;clip-rule:evenodd;stroke-linejoin:round;stroke-miterlimit:2;">
    <g transform="matrix(0.966667,0,0,0.966667,-207.3,-215.267)">
        <g transform="matrix(0.598802,0,0,0.598802,166.928,178.575)">
            <rect x="594.8" y="89.22" width="480.22" height="697.59" style="fill:rgb(236,243,253);"/>
        </g>
        <g transform="matrix(0.598802,0,0,0.598802,166.928,178.575)">
            <rect x="107" y="941.6" width="143.78" height="170.94" style="fill:rgb(24,114,236);"/>
        </g>
        <g transform="matrix(0.598802,0,0,0.598802,166.928,178.575)">
            <rect x="292.79" y="812.29" width="143.78" height="300.25" style="fill:rgb(24,114,236);"/>
        </g>
        <g transform="matrix(0.598802,0,0,0.598802,166.928,178.575)">
            <rect x="478.57" y="663.58" width="143.78" height="448.97" style="fill:rgb(24,114,236);"/>
        </g>
        <g transform="matrix(0.598802,0,0,0.598802,166.928,178.575)">
            <rect x="345.68" y="825.08" width="16.7" height="12.24" style="fill:rgb(222,142,104);"/>
        </g>
        <g transform="matrix(0.598802,0,0,0.598802,166.928,178.575)">
            <rect x="528.89" y="666.78" width="16.7" height="12.24" style="fill:rgb(222,142,104);"/>
        </g>
        <g transform="matrix(0.598802,0,0,0.598802,166.928,178.575)">
            <path d="M459.19,476.9C469.19,476.9 549.42,488.23 584.52,506.26C579.69,529.77 548.13,668.26 548.13,668.26L528.48,668.26C528.48,668.26 521.08,551.67 519.48,552.64C508.85,558.11 466.66,571.91 421.57,572.58" style="fill:rgb(85,152,240);fill-rule:nonzero;"/>
        </g>
        <g transform="matrix(0.598802,0,0,0.598802,166.928,178.575)">
            <path d="M459.19,476.9L363,826.69L345.68,826.69L345.68,476.9" style="fill:rgb(110,164,234);fill-rule:nonzero;"/>
        </g>
        <g transform="matrix(0.598802,0,0,0.598802,166.928,178.575)">
            <path d="M477,329.89C481.85,332 498.47,345.89 501.44,350.89C528.58,317.1 573.34,283 577,279.06C580.66,275.12 581.8,253.17 581.8,248.37C581.8,243.57 588.42,230.78 594.8,230.78L594.8,288.33C594.8,288.33 519.9,393.38 507.57,393.38C499.57,393.38 460.06,376.02 454.57,370.77" style="fill:rgb(222,142,104);fill-rule:nonzero;"/>
        </g>
        <g transform="matrix(0.598802,0,0,0.598802,166.928,178.575)">
            <path d="M416,310.55C425.88,294.55 483,319.33 483,326.98C483,334.63 461.82,369.86 452.33,369.36C444.77,369 405.77,327.16 416,310.55Z" style="fill:rgb(252,196,134);fill-rule:nonzero;"/>
        </g>
        <g transform="matrix(0.598802,0,0,0.598802,166.928,178.575)">
            <path d="M402.13,287.34C474.71,287.34 470.65,468.06 459.19,476.9C447.73,485.74 353.67,490.03 345.07,476.9C336.47,463.77 333.14,287.34 402.13,287.34Z" style="fill:rgb(254,211,133);fill-rule:nonzero;"/>
        </g>
        <g transform="matrix(0.598802,0,0,0.598802,166.928,178.575)">
            <path d="M323.63,344.39C310.74,348.44 277.58,410.96 277.58,420.5C277.58,440.5 345.1,528.59 353.69,528.59C357.27,522.38 363,509.5 363,509.5C363,509.5 322.44,433.86 315,424.08C321.44,418.08 344.82,386.62 348.64,376.84C352.46,367.06 351.03,346.06 351.03,346.06L323.63,344.39Z" style="fill:rgb(222,142,104);fill-rule:nonzero;"/>
        </g>
        <g transform="matrix(0.598802,0,0,0.598802,166.928,178.575)">
            <path d="M369.94,306.68C386.4,315.68 364.69,374 357.05,374.48C349.41,374.96 313.12,355.57 313.12,346.07C313.12,338.43 352.82,297.29 369.94,306.68Z" style="fill:rgb(254,216,146);fill-rule:nonzero;"/>
        </g>
        <g transform="matrix(0.598802,0,0,0.598802,166.928,178.575)">
            <path d="M345.68,834.73L345.68,849.53L390.28,849.53L390.28,844.16L363.2,834.73L345.68,834.73Z" style="fill-rule:nonzero;"/>
        </g>
        <g transform="matrix(0.598802,0,0,0.598802,166.928,178.575)">
            <path d="M528.16,677.67L528.16,692.47L572.77,692.47L572.77,687.11L545.69,677.67L528.16,677.67Z" style="fill-rule:nonzero;"/>
        </g>
        <g transform="matrix(0.598802,0,0,0.598802,166.928,178.575)">
            <rect x="594.8" y="89.22" width="480.22" height="44.93" style="fill:rgb(24,114,236);"/>
        </g>
        <g transform="matrix(0.598802,0,0,0.598802,166.928,178.575)">
            <rect x="705.7" y="190.74" width="403.3" height="114.91" style="fill:rgb(80,148,241);"/>
        </g>
        <g transform="matrix(0.598802,0,0,0.598802,166.928,178.575)">
            <rect x="729.25" y="212.98" width="360.56" height="10.41" style="fill:rgb(249,249,249);"/>
        </g>
        <g transform="matrix(0.598802,0,0,0.598802,166.928,178.575)">
            <rect x="729.25" y="237.78" width="360.56" height="10.41" style="fill:rgb(249,249,249);"/>
        </g>
        <g transform="matrix(0.598802,0,0,0.598802,166.928,178.575)">
            <rect x="729.25" y="262.59" width="360.56" height="10.41" style="fill:rgb(249,249,249);"/>
        </g>
        <g transform="matrix(0.598802,0,0,0.598802,166.928,178.575)">
            <rect x="705.7" y="351.83" width="403.3" height="114.91" style="fill:rgb(80,148,241);"/>
        </g>
        <g transform="matrix(0.598802,0,0,0.598802,166.928,178.575)">
            <circle cx="759.42" cy="409.28" r="34.22" style="fill:rgb(249,249,249);"/>
        </g>
        <g transform="matrix(0.598802,0,0,0.598802,166.928,178.575)">
            <rect x="818.89" y="375.06" width="262.55" height="33.1" style="fill:rgb(249,249,249);"/>
        </g>
        <g transform="matrix(0.598802,0,0,0.598802,166.928,178.575)">
            <rect x="818.89" y="419.38" width="262.55" height="12.16" style="fill:rgb(249,249,249);"/>
        </g>
        <g transform="matrix(0.598802,0,0,0.598802,166.928,178.575)">
            <rect x="641.74" y="516.58" width="378.79" height="186.36" style="fill:white;"/>
        </g>
        <g transform="matrix(0.598802,0,0,0.598802,166.928,178.575)">
            <path d="M420.14,251.78L391.39,251.78L391.39,292.57C391.39,302.7 420.14,302.87 420.14,292.57L420.14,251.78Z" style="fill:rgb(211,124,89);fill-rule:nonzero;"/>
        </g>
        <g transform="matrix(0.598802,0,0,0.598802,166.928,178.575)">
            <path d="M441.15,233.08C436.09,211.41 420,196.65 405.21,200.08C392.54,203.08 384.95,218.4 386.21,236.37C382.191,237.531 379.404,241.237 379.404,245.42C379.404,250.582 383.648,254.832 388.81,254.84C389.387,254.834 389.963,254.778 390.53,254.67C397.39,271.19 410.94,281.48 423.53,278.54C438.32,275.11 446.21,254.74 441.15,233.08Z" style="fill:rgb(222,142,104);fill-rule:nonzero;"/>
        </g>
        <g transform="matrix(0.598802,0,0,0.598802,166.928,178.575)">
            <path d="M393.55,243.21C397.33,243.21 397.99,237.99 397.99,233.36C397.99,227.16 403.88,221.56 407.51,220.5C414.08,218.6 417.43,218.16 421.41,216C425.39,213.84 430.13,210.59 430.13,210.59C431.891,212.712 433.492,214.961 434.92,217.32C438.57,216.32 457.69,211.76 457.69,198.06C457.69,189.06 450.13,187.88 446.69,185.06C443.03,182.06 444.6,172.99 434.69,172.99C425.81,172.99 421.44,182.32 415.76,185.91C408.89,190.26 395.41,186.76 386.53,195.91C382.22,200.35 381.21,211.28 378.53,215.28C374.87,220.7 368.53,222.28 368.53,230.55C368.53,236.62 373.68,246.87 379.88,248.37C379.88,242.37 382.07,236.63 386.51,236.63C391.34,236.63 388,243.21 393.55,243.21Z" style="fill:rgb(24,114,236);fill-rule:nonzero;"/>
        </g>
    </g>
</svg>
